<?xml version="1.0" encoding="iso-8859-1"?>
<!-- Generator: Adobe Illustrator 19.0.0, SVG Export Plug-In . SVG Version: 6.00 Build 0)  -->
<svg version="1.1" id="Layer_1" xmlns="http://www.w3.org/2000/svg" xmlns:xlink="http://www.w3.org/1999/xlink" x="0px" y="0px"
	 viewBox="0 0 512 512" style="enable-background:new 0 0 512 512;" xml:space="preserve">
<rect style="fill:#F7F0E5;" width="512" height="512"/>
<path style="fill:#E6E5E5;" d="M245.028,106.668c6.589,6.595,9.889,15.232,9.887,23.869v128.814h-33.759V96.781
	C229.796,96.788,238.431,100.081,245.028,106.668z"/>
<g>
	<path style="fill:#F15424;" d="M249.969,244.908c3.302,3.297,4.951,7.613,4.951,11.935l-0.003,46.866h-33.761l0.003-46.866
		c0.003-4.321,1.646-8.637,4.943-11.935c3.297-3.297,7.624-4.938,11.94-4.938C242.358,239.959,246.679,241.613,249.969,244.908z"/>
	<path style="fill:#F15424;" d="M254.915,289.69h-54.4c-16.113-0.003-29.292,13.179-29.292,29.289v66.947
		c0,16.113,13.181,29.292,29.292,29.292h25.101c16.113,0,29.302-13.179,29.297-29.292V289.69H254.915z M225.618,308.936
		c5.443,0,10.045,4.603,10.045,10.045v66.949c0,5.445-4.598,10.043-10.035,10.043l-25.111-0.005
		c-5.448,0.005-10.045-4.593-10.045-10.04v-66.947c0-5.448,4.603-10.045,10.045-10.045H225.618z"/>
</g>
<path style="fill:#2B4457;" d="M238.036,249.503c-4.05,0-7.337,3.284-7.337,7.334c0,4.058,3.29,7.342,7.342,7.342
	c4.045,0,7.332-3.284,7.332-7.34C245.373,252.79,242.094,249.503,238.036,249.503z"/>
<path style="fill:#FFFFFF;" d="M126.902,155.597c0.003,9.313,3.776,17.756,9.887,23.867l91.09,91.09l23.862-23.875L136.788,131.727
	C130.683,137.838,126.902,146.273,126.902,155.597z"/>
<g>
	<path style="fill:#FF6D3B;" d="M221.158,256.842c0.003,4.664,1.889,8.881,4.943,11.932l33.144,33.134l23.864-23.857l-33.142-33.144
		c-3.052-3.052-7.268-4.938-11.927-4.938c-4.667-0.008-8.883,1.887-11.94,4.938C223.048,247.959,221.158,252.183,221.158,256.842z"
		/>
	<path style="fill:#FF6D3B;" d="M317.386,360.056c11.392,11.382,30.029,11.389,41.421,0l17.756-17.761
		c11.387-11.387,11.387-30.029,0-41.421l-47.347-47.337c-11.395-11.389-30.026-11.389-41.416-0.003l-38.467,38.472L317.386,360.056z
		 M301.402,267.139c3.85-3.845,10.358-3.84,14.208,0.01l47.34,47.345c3.848,3.845,3.85,10.345,0,14.198l-17.756,17.759
		c-3.85,3.845-10.358,3.845-14.2,0l-47.345-47.342c-3.85-3.853-3.85-10.353,0-14.211L301.402,267.139z"/>
</g>
<path style="fill:#2B4457;" d="M232.845,251.651c2.87-2.865,7.514-2.865,10.376,0c2.875,2.87,2.875,7.514,0,10.383
	c-2.862,2.862-7.506,2.862-10.376-0.005C229.983,259.162,229.983,254.52,232.845,251.651z"/>
<g>
</g>
<g>
</g>
<g>
</g>
<g>
</g>
<g>
</g>
<g>
</g>
<g>
</g>
<g>
</g>
<g>
</g>
<g>
</g>
<g>
</g>
<g>
</g>
<g>
</g>
<g>
</g>
<g>
</g>
</svg>
